<?xml version="1.0" encoding="UTF-8"?>
<svg id="Layer_2" data-name="Layer 2" xmlns="http://www.w3.org/2000/svg" width="1597.0088" height="1597.0079" viewBox="0 0 1597.0088 1597.0079">
  <g id="Objects">
    <g>
      <circle cx="798.5046" cy="798.504" r="772.0669" style="fill: #dfe5e8; stroke-width: 0px;"/>
      <path d="m1283.537,1356.4778v42.7201c-132.552,107.1812-301.2906,171.3701-485.0376,171.3701s-352.4857-64.1889-485.0195-171.3339v-42.7563c0-230.8043,187.1045-417.9268,417.9088-417.9268h134.2396c230.8045,0,417.9088,187.1225,417.9088,417.9268Z" style="fill: #aeb6ba; stroke-width: 0px;"/>
      <circle cx="798.5046" cy="569.1607" r="256.4529" style="fill: #aeb6ba; stroke-width: 0px;"/>
      <path d="m798.5053,1597.0079c-107.7865,0-212.3625-21.1158-310.823-62.7609-95.0881-40.2189-180.4809-97.7902-253.8065-171.1149-73.3238-73.3247-130.8951-158.7175-171.1149-253.8056C21.1149,1010.866,0,906.29,0,798.5044s21.1149-212.3616,62.7609-310.8221c40.2199-95.089,97.7911-180.4818,171.1149-253.8065,73.3256-73.3247,158.7184-130.896,253.8065-171.1149C586.1428,21.1158,690.7188,0,798.5053,0s212.3607,21.1158,310.8212,62.7609c95.0899,40.2189,180.4809,97.7902,253.8065,171.1149,73.3238,73.3247,130.8951,158.7175,171.1149,253.8065,41.6459,98.4605,62.7609,203.0365,62.7609,310.8221s-21.1149,212.3607-62.7609,310.8221c-40.2199,95.0881-97.7911,180.4809-171.1149,253.8056-73.3256,73.3247-158.7166,130.896-253.8065,171.1149-98.4605,41.645-203.0347,62.7609-310.8212,62.7609Zm0-1544.1333c-100.6706,0-198.318,19.7107-290.2247,58.5844-88.7871,37.5532-168.5301,91.32-237.0154,159.8053-68.4871,68.4862-122.253,148.2292-159.8062,237.0154-38.8738,91.9076-58.5844,189.5532-58.5844,290.2247s19.7107,198.3162,58.5844,290.2238c37.5532,88.7862,91.3191,168.5292,159.8062,237.0154,68.4853,68.4853,148.2283,122.2521,237.0154,159.8053,91.9067,38.8738,189.5541,58.5844,290.2247,58.5844s198.3162-19.7107,290.2247-58.5844c88.7853-37.5532,168.5283-91.32,237.0135-159.8053,68.4871-68.4862,122.253-148.2292,159.8062-237.0154,38.8738-91.9076,58.5844-189.5532,58.5844-290.2238s-19.7107-198.3171-58.5844-290.2247c-37.5532-88.7862-91.3191-168.5292-159.8062-237.0154-68.4853-68.4853-148.2283-122.2521-237.0135-159.8053-91.9085-38.8738-189.5541-58.5844-290.2247-58.5844Z" style="fill: #aeb6ba; stroke-width: 0px;"/>
    </g>
  </g>
</svg>